<svg width="170" height="33" viewBox="0 0 170 33" fill="none" xmlns="http://www.w3.org/2000/svg"><g clip-path="url(#clip0_398_85)"><path d="M33.3436 21.0817C33.8198 21.2553 34.3179 21.4028 34.8334 21.533C35.3533 21.6631 35.9912 21.7282 36.7382 21.7282C37.9178 21.7282 38.8003 21.4896 39.3857 21.008C39.9668 20.5264 40.2595 19.8756 40.2595 19.0599C40.2595 18.6607 40.1983 18.3136 40.076 18.0273C39.9537 17.7409 39.7702 17.4936 39.5255 17.2854C39.2809 17.0771 38.9751 16.8905 38.6081 16.717C38.2367 16.5434 37.8086 16.3569 37.3193 16.1573L36.0916 15.6627C35.6722 15.4891 35.2921 15.2982 34.9426 15.0943C34.5975 14.8861 34.3004 14.6301 34.047 14.3307C33.7936 14.027 33.597 13.6799 33.4529 13.2851C33.3087 12.8903 33.2344 12.4217 33.2344 11.875C33.2344 10.5691 33.68 9.54946 34.5757 8.81188C35.4669 8.0743 36.7251 7.70117 38.3372 7.70117C39.0275 7.70117 39.6828 7.76191 40.3032 7.87472C40.9236 7.98753 41.4697 8.13504 41.9459 8.30425C41.876 8.90733 41.7187 9.50173 41.4697 10.0918C41.0808 9.94862 40.6309 9.81846 40.1197 9.70131C39.6086 9.58851 39.0319 9.5321 38.3809 9.5321C37.4722 9.5321 36.7732 9.70999 36.2839 10.0788C35.7946 10.4432 35.5499 10.9942 35.5499 11.7231C35.5499 12.0269 35.6111 12.2915 35.7334 12.5301C35.8557 12.7688 36.0174 12.977 36.2183 13.1549C36.4193 13.3328 36.6596 13.4977 36.9305 13.6365C37.2057 13.784 37.494 13.9099 37.7955 14.027L39.0057 14.4999C39.5823 14.7299 40.0935 14.9685 40.5391 15.2201C40.9847 15.4718 41.3692 15.7668 41.6881 16.1009C42.0027 16.4393 42.243 16.8385 42.4133 17.2984C42.5794 17.7583 42.658 18.2963 42.658 18.9124C42.658 20.3875 42.1468 21.5546 41.1245 22.4094C40.1022 23.2598 38.6693 23.685 36.8256 23.685C36.38 23.685 35.9737 23.6719 35.6154 23.6459C35.2572 23.6155 34.9208 23.5721 34.6106 23.5157C34.3004 23.4593 33.999 23.3856 33.715 23.3031C33.4267 23.2164 33.1296 23.1209 32.8281 23.0211C32.8543 22.7044 32.9242 22.3833 33.0247 22.0536C33.1208 21.7195 33.2301 21.3985 33.3436 21.0817Z" fill="black"/><path d="M45.1406 12.3914C45.3023 12.361 45.4814 12.3393 45.6824 12.322C45.8877 12.309 46.0581 12.3046 46.2023 12.3046C46.3639 12.3046 46.5387 12.309 46.7396 12.322C46.945 12.3393 47.1241 12.361 47.2814 12.3914V18.4352C47.2814 19.1251 47.3469 19.6934 47.4736 20.1447C47.6046 20.6002 47.8012 20.9517 48.059 21.212C48.3211 21.468 48.6357 21.6459 49.0114 21.7456C49.3871 21.8454 49.8196 21.8975 50.309 21.8975C51.0429 21.8975 51.672 21.8151 52.1876 21.6589V12.3871C52.3492 12.361 52.524 12.3393 52.7206 12.322C52.9128 12.309 53.0875 12.3003 53.2492 12.3003C53.4065 12.3003 53.5856 12.309 53.7778 12.322C53.9744 12.335 54.1492 12.3567 54.3064 12.3871V23.0776C53.804 23.2251 53.2011 23.3596 52.5021 23.4898C51.8031 23.6156 51.0779 23.6807 50.3308 23.6807C49.6274 23.6807 48.959 23.62 48.3299 23.4985C47.7051 23.377 47.1547 23.1297 46.6785 22.7566C46.2023 22.3834 45.8265 21.8628 45.5557 21.186C45.2804 20.5135 45.145 19.624 45.145 18.5177V12.3914H45.1406Z" fill="black"/><path d="M71.8968 18.435C71.923 19.6368 72.2376 20.5219 72.8361 21.0816C73.4346 21.6413 74.3171 21.919 75.4836 21.919C76.5059 21.919 77.4802 21.7411 78.402 21.381C78.5156 21.5979 78.6117 21.8582 78.6816 22.1663C78.7559 22.4743 78.7952 22.7824 78.8126 23.0817C78.3364 23.2813 77.8122 23.4332 77.2442 23.533C76.6763 23.6328 76.0428 23.6848 75.3525 23.6848C74.3433 23.6848 73.4783 23.546 72.7575 23.264C72.041 22.9863 71.4424 22.5915 70.9793 22.0838C70.5075 21.5719 70.1667 20.9731 69.9483 20.2746C69.7342 19.5804 69.625 18.8168 69.625 17.9838C69.625 17.1681 69.7342 16.4045 69.9396 15.6929C70.1493 14.9814 70.4726 14.3653 70.9007 13.8403C71.3332 13.3197 71.8793 12.9031 72.5346 12.5908C73.19 12.2827 73.9632 12.1309 74.8589 12.1309C75.6234 12.1309 76.2918 12.2567 76.8685 12.517C77.4452 12.7773 77.9258 13.1331 78.3146 13.58C78.7078 14.0355 79.0005 14.5735 79.2015 15.194C79.4024 15.8188 79.5073 16.4956 79.5073 17.2288C79.5073 17.4284 79.4986 17.641 79.4854 17.8623C79.468 18.0836 79.4549 18.2745 79.4418 18.4307H71.8968V18.435ZM77.384 16.8427C77.384 16.4392 77.3316 16.0574 77.2224 15.6929C77.1175 15.3241 76.9559 15.0074 76.7462 14.7341C76.5409 14.4607 76.27 14.2438 75.9467 14.0789C75.6234 13.9141 75.2389 13.8316 74.7933 13.8316C73.9108 13.8316 73.238 14.0963 72.7706 14.6256C72.3031 15.1593 72.0191 15.8969 71.9186 16.8427H77.384Z" fill="black"/><path d="M82.2578 12.3915C82.4151 12.3611 82.5636 12.3394 82.7122 12.322C82.852 12.309 83.0049 12.3047 83.1665 12.3047C83.3238 12.3047 83.4811 12.309 83.6427 12.322C83.8 12.3394 83.9442 12.3611 84.0709 12.3915C84.1146 12.6041 84.1583 12.8904 84.2019 13.2375C84.2456 13.5933 84.2675 13.8883 84.2675 14.1313C84.5689 13.6453 84.9709 13.2245 85.4689 12.8644C85.9669 12.5043 86.6048 12.322 87.3824 12.322C87.496 12.322 87.614 12.3307 87.7363 12.3351C87.8587 12.3437 87.9635 12.3524 88.0509 12.3698C88.0815 12.4956 88.1033 12.6344 88.1164 12.7776C88.1339 12.9208 88.1383 13.0726 88.1383 13.2288C88.1383 13.4024 88.1251 13.5803 88.1077 13.7668C88.0858 13.9534 88.0596 14.1313 88.029 14.3048C87.9154 14.2788 87.7975 14.2658 87.6752 14.2658C87.5528 14.2658 87.4523 14.2658 87.3824 14.2658C86.9936 14.2658 86.6223 14.3178 86.2684 14.4263C85.9145 14.5304 85.6 14.7257 85.316 14.9947C85.0364 15.268 84.8136 15.6411 84.6476 16.1141C84.4815 16.587 84.3985 17.1944 84.3985 17.9407V23.4248C84.2413 23.4552 84.0621 23.4725 83.8699 23.4899C83.6733 23.5029 83.4986 23.5116 83.3369 23.5116C83.1796 23.5116 83.0049 23.5029 82.8083 23.4899C82.6161 23.4768 82.4326 23.4552 82.2578 23.4248V12.3915Z" fill="black"/><path d="M89.7949 21.4243C90.1837 21.5848 90.6119 21.7063 91.0794 21.8018C91.5512 21.8929 92.0143 21.9406 92.4774 21.9406C92.805 21.9406 93.124 21.9059 93.4254 21.8321C93.7312 21.7627 93.9934 21.6543 94.2162 21.5111C94.439 21.3679 94.6181 21.19 94.7535 20.9818C94.889 20.7735 94.9633 20.5435 94.9633 20.2832C94.9633 19.9969 94.9065 19.7582 94.7972 19.5717C94.6924 19.3851 94.5482 19.2289 94.3691 19.0988C94.1856 18.9729 93.9803 18.8601 93.74 18.7647C93.5041 18.6736 93.2463 18.5825 92.9754 18.4957L92.2196 18.218C91.2978 17.8709 90.625 17.4848 90.21 17.0552C89.7906 16.6257 89.5808 16.0443 89.5808 15.3111C89.5808 14.3349 89.9304 13.5626 90.6294 12.9899C91.3284 12.4128 92.3551 12.1265 93.7094 12.1265C94.273 12.1265 94.8234 12.1829 95.3652 12.287C95.9025 12.3955 96.3788 12.5213 96.7807 12.6645C96.7545 12.9508 96.6977 13.2372 96.619 13.5279C96.5404 13.8142 96.4443 14.0789 96.3263 14.3218C96.0118 14.209 95.6317 14.0962 95.1948 13.9878C94.7535 13.8793 94.2817 13.8272 93.7749 13.8272C93.2463 13.8272 92.7701 13.9183 92.3594 14.1049C91.9488 14.2958 91.7434 14.6212 91.7434 15.0985C91.7434 15.3414 91.7915 15.5497 91.892 15.7189C91.9968 15.8925 92.1322 16.04 92.3026 16.1615C92.4774 16.2829 92.674 16.3871 92.8968 16.4738C93.1196 16.5606 93.3599 16.6474 93.622 16.7342L94.5744 17.0552C94.9196 17.168 95.2472 17.3069 95.5574 17.4631C95.8676 17.6236 96.1341 17.8188 96.3569 18.0531C96.5797 18.2918 96.7588 18.5781 96.8943 18.9165C97.0297 19.2506 97.104 19.6585 97.104 20.1314C97.104 20.6607 96.9948 21.1466 96.7763 21.5848C96.5622 22.0187 96.2564 22.3918 95.8589 22.6999C95.4613 23.0079 94.9851 23.2509 94.4215 23.4244C93.8579 23.5937 93.2419 23.6804 92.5604 23.6804C91.8701 23.6804 91.2672 23.6327 90.7473 23.5416C90.2274 23.4461 89.7469 23.3203 89.2969 23.1641C89.3275 22.8778 89.3886 22.5871 89.4804 22.2964C89.5765 22.0014 89.677 21.7107 89.7949 21.4243Z" fill="black"/><path d="M104.262 23.6848C103.393 23.6848 102.641 23.5373 101.99 23.2423C101.339 22.9472 100.802 22.5437 100.369 22.0274C99.9369 21.5111 99.618 20.9037 99.4083 20.2008C99.1986 19.498 99.0938 18.7344 99.0938 17.9187C99.0938 17.103 99.1986 16.3394 99.4083 15.6365C99.618 14.9337 99.9369 14.3262 100.369 13.8099C100.802 13.2936 101.344 12.8858 101.99 12.5864C102.637 12.2827 103.393 12.1309 104.262 12.1309C105.127 12.1309 105.879 12.2827 106.53 12.5864C107.176 12.8858 107.718 13.2936 108.15 13.8099C108.583 14.3262 108.902 14.9337 109.111 15.6365C109.321 16.3394 109.426 17.103 109.426 17.9187C109.426 18.7344 109.321 19.498 109.111 20.2008C108.902 20.9037 108.583 21.5111 108.15 22.0274C107.718 22.5437 107.176 22.9472 106.53 23.2423C105.883 23.5373 105.123 23.6848 104.262 23.6848ZM104.262 21.9841C105.254 21.9841 105.988 21.6283 106.464 20.9081C106.94 20.1922 107.176 19.1943 107.176 17.9187C107.176 16.6431 106.94 15.6495 106.464 14.938C105.988 14.2265 105.254 13.875 104.262 13.875C103.266 13.875 102.532 14.2265 102.065 14.938C101.597 15.6495 101.361 16.6431 101.361 17.9187C101.361 19.1943 101.597 20.1922 102.065 20.9081C102.532 21.6239 103.266 21.9841 104.262 21.9841Z" fill="black"/><path d="M112.031 12.3914C112.193 12.361 112.372 12.3393 112.573 12.322C112.774 12.309 112.949 12.3046 113.093 12.3046C113.25 12.3046 113.429 12.309 113.63 12.322C113.836 12.3393 114.015 12.361 114.172 12.3914V18.4352C114.172 19.1251 114.238 19.6934 114.364 20.1447C114.495 20.6002 114.687 20.9517 114.95 21.212C115.212 21.468 115.526 21.6459 115.902 21.7456C116.278 21.8454 116.71 21.8975 117.2 21.8975C117.934 21.8975 118.563 21.8151 119.078 21.6589V12.3871C119.24 12.361 119.415 12.3393 119.607 12.322C119.803 12.309 119.978 12.3003 120.14 12.3003C120.297 12.3003 120.476 12.309 120.668 12.322C120.865 12.335 121.04 12.3567 121.197 12.3871V23.0776C120.695 23.2251 120.092 23.3596 119.393 23.4898C118.694 23.6156 117.968 23.6807 117.221 23.6807C116.518 23.6807 115.85 23.62 115.22 23.4985C114.596 23.377 114.045 23.1297 113.569 22.7566C113.093 22.3834 112.717 21.8628 112.446 21.186C112.171 20.5135 112.036 19.624 112.036 18.5177V12.3914H112.031Z" fill="black"/><path d="M124.508 12.3915C124.665 12.3611 124.814 12.3394 124.962 12.322C125.102 12.309 125.255 12.3047 125.417 12.3047C125.574 12.3047 125.731 12.309 125.893 12.322C126.05 12.3394 126.194 12.3611 126.325 12.3915C126.365 12.6041 126.408 12.8904 126.452 13.2375C126.496 13.5933 126.517 13.8883 126.517 14.1313C126.819 13.6453 127.221 13.2245 127.719 12.8644C128.217 12.5043 128.855 12.322 129.632 12.322C129.746 12.322 129.868 12.3307 129.986 12.3351C130.109 12.3437 130.218 12.3524 130.301 12.3698C130.331 12.4956 130.353 12.6344 130.366 12.7776C130.384 12.9208 130.388 13.0726 130.388 13.2288C130.388 13.4024 130.38 13.5803 130.358 13.7668C130.336 13.9534 130.31 14.1313 130.283 14.3048C130.165 14.2788 130.048 14.2658 129.925 14.2658C129.803 14.2658 129.707 14.2658 129.632 14.2658C129.244 14.2658 128.877 14.3178 128.518 14.4263C128.165 14.5304 127.85 14.7257 127.57 14.9947C127.286 15.268 127.064 15.6411 126.898 16.1141C126.732 16.587 126.649 17.1944 126.649 17.9407V23.4248C126.491 23.4552 126.312 23.4725 126.12 23.4899C125.923 23.5029 125.749 23.5116 125.591 23.5116C125.43 23.5116 125.255 23.5029 125.058 23.4899C124.866 23.4768 124.683 23.4552 124.508 23.4248V12.3915Z" fill="black"/><path d="M139.551 21.5111C139.664 21.7107 139.765 21.9624 139.852 22.2661C139.94 22.5654 139.988 22.8735 140.001 23.1902C139.149 23.52 138.179 23.6848 137.087 23.6848C135.239 23.6848 133.85 23.1642 132.915 22.1229C131.975 21.0859 131.508 19.6845 131.508 17.9187C131.508 17.103 131.626 16.3394 131.857 15.6365C132.084 14.9337 132.43 14.3262 132.884 13.8099C133.338 13.2936 133.902 12.8858 134.579 12.5864C135.256 12.2827 136.043 12.1309 136.938 12.1309C137.541 12.1309 138.074 12.1656 138.537 12.2393C139 12.3131 139.437 12.4259 139.852 12.5821C139.852 12.8294 139.822 13.1114 139.756 13.4325C139.691 13.7535 139.599 14.0399 139.485 14.2829C138.782 14.0399 137.974 13.9141 137.065 13.9141C135.955 13.9141 135.125 14.2829 134.579 15.0118C134.033 15.745 133.758 16.7125 133.758 17.9143C133.758 19.2941 134.068 20.3006 134.688 20.9384C135.309 21.5806 136.161 21.8973 137.24 21.8973C137.672 21.8973 138.074 21.8669 138.441 21.8105C138.804 21.7541 139.175 21.6543 139.551 21.5111Z" fill="black"/><path d="M142.964 11.0725C142.933 10.899 142.916 10.7124 142.907 10.5128C142.903 10.3133 142.898 10.131 142.898 9.97484C142.898 9.81865 142.898 9.64076 142.907 9.44118C142.916 9.23726 142.933 9.05937 142.964 8.90318C143.152 8.87281 143.353 8.85545 143.567 8.8381C143.785 8.82508 143.969 8.81641 144.13 8.81641C144.288 8.81641 144.476 8.82508 144.694 8.8381C144.908 8.85112 145.105 8.87281 145.275 8.90318C145.306 9.05937 145.323 9.23726 145.332 9.44118C145.336 9.64076 145.341 9.81865 145.341 9.97484C145.341 10.1354 145.336 10.3133 145.332 10.5128C145.323 10.7124 145.306 10.899 145.275 11.0725C145.105 11.1029 144.912 11.1246 144.703 11.1376C144.497 11.1506 144.31 11.1593 144.152 11.1593C143.982 11.1593 143.785 11.1506 143.571 11.1376C143.348 11.1246 143.147 11.1029 142.964 11.0725Z" fill="black"/><path d="M148.582 12.3912C148.74 12.3608 148.897 12.3391 149.046 12.3218C149.194 12.3087 149.351 12.3044 149.509 12.3044C149.67 12.3044 149.815 12.3087 149.954 12.3218C150.09 12.3391 150.238 12.3608 150.396 12.3912C150.439 12.6038 150.483 12.8945 150.527 13.2589C150.566 13.6277 150.592 13.9314 150.592 14.1744C150.732 13.9314 150.92 13.6885 151.143 13.4455C151.365 13.2025 151.619 12.9812 151.907 12.7903C152.196 12.5951 152.528 12.4346 152.903 12.3131C153.279 12.1916 153.69 12.1309 154.135 12.1309C155.402 12.1309 156.337 12.4953 156.944 13.2199C157.547 13.9401 157.849 15.0161 157.849 16.4349V23.4288C157.692 23.4549 157.512 23.4766 157.311 23.4939C157.11 23.5069 156.927 23.5156 156.77 23.5156C156.612 23.5156 156.438 23.5069 156.241 23.4939C156.049 23.4766 155.87 23.4592 155.712 23.4288V17.0162C155.712 15.9966 155.551 15.2504 155.236 14.7688C154.917 14.2872 154.415 14.0486 153.725 14.0486C153.318 14.0486 152.938 14.118 152.576 14.2612C152.217 14.4043 151.898 14.6256 151.623 14.9293C151.348 15.2287 151.13 15.6192 150.964 16.1008C150.797 16.5824 150.719 17.1594 150.719 17.8319V23.4245C150.557 23.4549 150.382 23.4722 150.186 23.4896C149.994 23.5026 149.815 23.5113 149.657 23.5113C149.496 23.5113 149.321 23.5026 149.12 23.4896C148.915 23.4766 148.735 23.4549 148.578 23.4245V12.3912H148.582Z" fill="black"/><path d="M160.344 17.7538C160.344 16.0009 160.75 14.6039 161.563 13.5669C162.38 12.53 163.459 12.0137 164.804 12.0137C166.181 12.0137 167.26 12.4996 168.029 13.4715L168.125 12.2219H169.89V23.2032C169.89 24.661 169.453 25.8064 168.588 26.6438C167.718 27.4811 166.556 27.902 165.093 27.902C164.28 27.902 163.481 27.7285 162.703 27.3814C161.921 27.0343 161.327 26.5613 160.916 25.9583L161.917 24.8042C162.747 25.8238 163.76 26.3314 164.957 26.3314C165.897 26.3314 166.63 26.0711 167.155 25.5417C167.683 25.0124 167.946 24.2748 167.946 23.316V22.3528C167.172 23.2379 166.115 23.6804 164.778 23.6804C163.459 23.6804 162.384 23.1511 161.567 22.0881C160.75 21.0295 160.344 19.5847 160.344 17.7538ZM162.284 17.9707C162.284 19.2376 162.546 20.2355 163.066 20.9601C163.59 21.6846 164.324 22.0448 165.259 22.0448C166.478 22.0448 167.373 21.4937 167.946 20.3917V15.259C167.356 14.183 166.464 13.645 165.281 13.645C164.341 13.645 163.607 14.0095 163.079 14.7384C162.55 15.4673 162.284 16.5433 162.284 17.9707Z" fill="black"/><path d="M67.1537 15.1766C66.9309 14.4824 66.6207 13.9054 66.2231 13.4542C65.8256 13.0029 65.3494 12.6732 64.7989 12.4563C64.244 12.2393 63.6411 12.1309 62.9902 12.1309C62.562 12.1309 62.1688 12.1829 61.815 12.2827C61.4611 12.3825 61.1465 12.517 60.8626 12.6906C60.583 12.8641 60.3383 13.055 60.1373 13.2719C59.9364 13.4845 59.7616 13.7101 59.6218 13.9401C59.6218 13.8967 59.6087 13.7969 59.5869 13.6364C59.565 13.4802 59.5432 13.3153 59.5213 13.1418C59.4995 12.9726 59.4776 12.8077 59.4558 12.6602C59.434 12.5127 59.4165 12.4216 59.4034 12.3912C59.2548 12.3651 59.1063 12.3435 58.949 12.3261C58.7874 12.3131 58.6388 12.3044 58.4903 12.3044C58.333 12.3044 58.1801 12.3131 58.0272 12.3261C57.8786 12.3391 57.7301 12.3608 57.5859 12.3912V28.5008L59.7267 27.7806V23.4462C59.9713 23.52 60.2597 23.5764 60.5917 23.6197C60.9237 23.6588 61.247 23.6848 61.5659 23.6848C63.4533 23.6848 64.9081 23.1512 65.9435 22.0795C66.9702 21.0122 67.4857 19.5327 67.4857 17.6367C67.4857 16.6908 67.3765 15.8708 67.1537 15.1766ZM64.9693 19.5848C64.7901 20.1097 64.5455 20.5436 64.2353 20.8864C63.9251 21.2335 63.5538 21.4894 63.1212 21.65C62.6887 21.8148 62.2125 21.8973 61.697 21.8973C61.2339 21.8973 60.8626 21.8756 60.5742 21.8322C60.2859 21.7888 60.0019 21.7194 59.731 21.6196V17.1421C59.731 16.5997 59.8097 16.1268 59.967 15.732C60.1286 15.3415 60.3339 15.0118 60.5917 14.7558C60.8538 14.4955 61.1509 14.3045 61.4786 14.1744C61.8106 14.0486 62.1557 13.9791 62.514 13.9791C63.4839 13.9791 64.1741 14.3176 64.6023 14.9901C65.0261 15.6669 65.2401 16.578 65.2401 17.7234C65.2401 18.4437 65.1484 19.0641 64.9693 19.5848Z" fill="black"/><path d="M143.07 12.799V23.4288C143.232 23.4549 143.407 23.4766 143.603 23.4939C143.796 23.5069 143.966 23.5156 144.11 23.5156C144.272 23.5156 144.447 23.5069 144.639 23.4939C144.835 23.4766 145.01 23.4592 145.172 23.4288V12.0918L143.07 12.799Z" fill="black"/><path d="M26.8492 21.5765L26.8536 21.5722L24.0095 18.8302L24.0051 18.8345L23.8697 18.6957L14.6383 9.7666L7.67879 20.084L1.19545 29.6552C0.500802 30.6791 1.52311 32.3018 2.63279 31.9287L26.5565 23.863C27.4434 23.568 27.5002 22.2751 26.8492 21.5765Z" fill="url(#paint0_linear_398_85)"/><path d="M18.5982 13.6064L12.875 22.0539L26.1082 23.9065C27.2659 24.0714 27.7378 22.4227 26.7941 21.5116L18.5982 13.6064Z" fill="url(#paint1_linear_398_85)"/><path d="M0.664717 10.287L12.8712 22.0535L26.2355 2.32978C26.9301 1.30584 25.9122 -0.312493 24.8025 0.051958L0.905003 7.9267C0.0356048 8.21306 -0.099829 9.54938 0.664717 10.287Z" fill="url(#paint2_linear_398_85)"/></g><defs><linearGradient id="paint0_linear_398_85" x1="15.4248" y1="23.031" x2="-9.74808" y2="53.016" gradientUnits="userSpaceOnUse"><stop offset="0.00186302" stop-color="#0096E3"/><stop offset="0.2137" stop-color="#00A8FF"/><stop offset="0.3791" stop-color="#24B4FF"/><stop offset="0.5807" stop-color="#4CC2FF"/></linearGradient><linearGradient id="paint1_linear_398_85" x1="17.6075" y1="4.98469" x2="25.8965" y2="63.5513" gradientUnits="userSpaceOnUse"><stop offset="0.013" stop-color="#26B2FA"/><stop offset="0.4657" stop-color="#36B5F7"/></linearGradient><linearGradient id="paint2_linear_398_85" x1="2.52934" y1="11.0082" x2="35.3925" y2="7.42246" gradientUnits="userSpaceOnUse"><stop stop-color="#21A7EB"/><stop offset="1" stop-color="#18AAF5"/></linearGradient><clipPath id="clip0_398_85"><rect width="170" height="32.2105" fill="white"/></clipPath></defs></svg>